{
  "source": "C:\\Users\\Peter\\Desktop\\stuff\\MIUN\\quantitative_research\\video_compression\\videos\\BVI-HD\\BVI-HD_CDVL_videos\\ORIG\\MartialArts_1920x1080_60fps.mp4",
  "output": "C:\\Users\\Peter\\Desktop\\stuff\\MIUN\\quantitative_research\\video_compression\\compressed_videos\\BVI-HD\\av1\\2.5\\MartialArts_1920x1080_60fps_av1.mkv",
  "codec": "av1",
  "ok": "Input #0, mov,mp4,m4a,3gp,3g2,mj2, from 'C:\\Users\\Peter\\Desktop\\stuff\\MIUN\\quantitative_research\\video_compression\\videos\\BVI-HD\\BVI-HD_CDVL_videos\\ORIG\\MartialArts_1920x1080_60fps.mp4':\n  Metadata:\n    major_brand     : isom\n    minor_version   : 512\n    compatible_brands: isomiso2avc1mp41\n    encoder         : Lavf54.28.101\n  Duration: 00:00:05.00, start: 0.000000, bitrate: 120609 kb/s\n  Stream #0:0[0x1](und): Video: h264 (High 4:4:4 Predictive) (avc1 / 0x31637661), yuv420p(progressive), 1920x1080, 120605 kb/s, 60 fps, 60 tbr, 60 tbn (default)\n    Metadata:\n      handler_name    : VideoHandler\n      vendor_id       : [0][0][0][0]\n[out#0/matroska @ 000001eb685897c0] Codec AVOption b:a (set bitrate (in bits/s)) has not been used for any stream. The most likely reason is either wrong type (e.g. a video option with no video streams) or that it is a private option of some decoder which was not actually used for any stream.\nStream mapping:\n  Stream #0:0 -> #0:0 (h264 (native) -> av1 (libsvtav1))\nPress [q] to stop, [?] for help\nSvt[info]: -------------------------------------------\nSvt[info]: SVT [version]:\tSVT-AV1 Encoder Lib v3.1.0-19-g6ecfe8ec\nSvt[info]: SVT [build]  :\tGCC 15.2.0\t 64 bit\nSvt[info]: LIB Build date: Aug 17 2025 11:37:13\nSvt[info]: -------------------------------------------\nSvt[info]: Level of Parallelism: 5\nSvt[info]: Number of PPCS 93\nSvt[info]: [asm level on system : up to avx2]\nSvt[info]: [asm level selected : up to avx2]\nSvt[info]: -------------------------------------------\nSvt[info]: SVT [config]: main profile\ttier (auto)\tlevel (auto)\nSvt[info]: SVT [config]: width / height / fps numerator / fps denominator \t\t: 1920 / 1080 / 60 / 1\nSvt[info]: SVT [config]: bit-depth / color format \t\t\t\t\t: 8 / YUV420\nSvt[info]: SVT [config]: preset / tune / pred struct \t\t\t\t\t: 4 / PSNR / random access\nSvt[info]: SVT [config]: gop size / mini-gop size / key-frame type \t\t\t: 321 / 16 / key frame\nSvt[info]: SVT [config]: BRC mode / target bitrate (kbps)\t\t\t\t: VBR / 2500 \nSvt[info]: SVT [config]: AQ mode / Variance Boost \t\t\t\t\t: 2 / 0\nSvt[info]: SVT [config]: sharpness / luminance-based QP bias \t\t\t\t: 0 / 0\nSvt[info]: SVT [config]: QP scale compress strength \t\t\t\t\t: 0\nSvt[info]: -------------------------------------------\nOutput #0, matroska, to 'C:\\Users\\Peter\\Desktop\\stuff\\MIUN\\quantitative_research\\video_compression\\compressed_videos\\BVI-HD\\av1\\2.5\\MartialArts_1920x1080_60fps_av1.mkv':\n  Metadata:\n    major_brand     : isom\n    minor_version   : 512\n    compatible_brands: isomiso2avc1mp41\n    encoder         : Lavf62.3.100\n  Stream #0:0(und): Video: av1 (AV01 / 0x31305641), yuv420p(tv, progressive), 1920x1080, q=2-31, 2500 kb/s, 60 fps, 1k tbn (default)\n    Metadata:\n      encoder         : Lavc62.11.100 libsvtav1\n      handler_name    : VideoHandler\n      vendor_id       : [0][0][0][0]\n    Side data:\n      cpb: bitrate max/min/avg: 0/0/2500000 buffer size: 2500000 vbv_delay: N/A\nframe=    0 fps=0.0 q=0.0 size=       0KiB time=N/A bitrate=N/A speed=N/A elapsed=0:00:01.06    \nframe=    0 fps=0.0 q=0.0 size=       0KiB time=N/A bitrate=N/A speed=N/A elapsed=0:00:01.61    \nframe=    0 fps=0.0 q=0.0 size=       0KiB time=N/A bitrate=N/A speed=N/A elapsed=0:00:02.13    \nframe=    0 fps=0.0 q=0.0 size=       0KiB time=N/A bitrate=N/A speed=N/A elapsed=0:00:02.67    \nframe=    1 fps=0.3 q=6.0 size=       1KiB time=00:00:00.00 bitrate=N/A speed=   0x elapsed=0:00:03.19    \nframe=    1 fps=0.3 q=6.0 size=       1KiB time=00:00:00.00 bitrate=N/A speed=   0x elapsed=0:00:03.71    \nframe=    1 fps=0.2 q=6.0 size=       1KiB time=00:00:00.00 bitrate=N/A speed=   0x elapsed=0:00:04.23    \nframe=    5 fps=1.1 q=30.0 size=       1KiB time=00:00:00.06 bitrate=  85.4kbits/s speed=0.014x elapsed=0:00:04.74    \nframe=    8 fps=1.5 q=31.0 size=       1KiB time=00:00:00.11 bitrate=  48.8kbits/s speed=0.0222x elapsed=0:00:05.25    \nframe=   12 fps=2.1 q=28.0 size=       1KiB time=00:00:00.18 bitrate=  31.1kbits/s speed=0.0315x elapsed=0:00:05.82    \nframe=   17 fps=2.7 q=16.0 size=       1KiB time=00:00:00.26 bitrate=  21.4kbits/s speed=0.0418x elapsed=0:00:06.37    \nframe=   21 fps=3.1 q=30.0 size=       1KiB time=00:00:00.33 bitrate=  17.1kbits/s speed=0.0484x elapsed=0:00:06.88    \nframe=   24 fps=3.2 q=25.0 size=       1KiB time=00:00:00.36 bitrate=  15.5kbits/s speed=0.0495x elapsed=0:00:07.40    \nframe=   27 fps=3.4 q=25.0 size=       1KiB time=00:00:00.43 bitrate=  13.1kbits/s speed=0.0545x elapsed=0:00:07.94    \nframe=   30 fps=3.5 q=20.0 size=       1KiB time=00:00:00.46 bitrate=  12.2kbits/s speed=0.055x elapsed=0:00:08.49    \nframe=   32 fps=3.5 q=21.0 size=       1KiB time=00:00:00.51 bitrate=  11.0kbits/s speed=0.0568x elapsed=0:00:09.09    \nframe=   35 fps=3.6 q=23.0 size=       1KiB time=00:00:00.56 bitrate=  10.1kbits/s speed=0.0585x elapsed=0:00:09.68    \nframe=   36 fps=3.5 q=20.0 size=       1KiB time=00:00:00.58 bitrate=   9.8kbits/s speed=0.0569x elapsed=0:00:10.24    \nframe=   37 fps=3.4 q=28.0 size=       1KiB time=00:00:00.60 bitrate=   9.5kbits/s speed=0.0555x elapsed=0:00:10.80    \nframe=   39 fps=3.4 q=19.0 size=       1KiB time=00:00:00.63 bitrate=   9.0kbits/s speed=0.0556x elapsed=0:00:11.38    \nframe=   40 fps=3.3 q=17.0 size=       1KiB time=00:00:00.65 bitrate=   8.8kbits/s speed=0.0544x elapsed=0:00:11.94    \nframe=   42 fps=3.4 q=20.0 size=       1KiB time=00:00:00.68 bitrate=   8.3kbits/s speed=0.0547x elapsed=0:00:12.48    \nframe=   43 fps=3.3 q=25.0 size=       1KiB time=00:00:00.70 bitrate=   8.1kbits/s speed=0.0538x elapsed=0:00:13.01    \nframe=   47 fps=3.5 q=26.0 size=       1KiB time=00:00:00.75 bitrate=   7.6kbits/s speed=0.0554x elapsed=0:00:13.54    \nframe=   50 fps=3.5 q=23.0 size=       1KiB time=00:00:00.81 bitrate=   7.0kbits/s speed=0.0579x elapsed=0:00:14.09    \nframe=   53 fps=3.6 q=28.0 size=       1KiB time=00:00:00.86 bitrate=   6.6kbits/s speed=0.0593x elapsed=0:00:14.60    \nframe=   55 fps=3.6 q=28.0 size=       1KiB time=00:00:00.90 bitrate=   6.3kbits/s speed=0.0595x elapsed=0:00:15.13    \nframe=   58 fps=3.7 q=25.0 size=       1KiB time=00:00:00.95 bitrate=   6.0kbits/s speed=0.0607x elapsed=0:00:15.65    \nframe=   60 fps=3.7 q=25.0 size=       1KiB time=00:00:00.98 bitrate=   5.8kbits/s speed=0.0608x elapsed=0:00:16.17    \nframe=   65 fps=3.9 q=7.0 size=       1KiB time=00:00:01.06 bitrate=   5.3kbits/s speed=0.0638x elapsed=0:00:16.72    \nframe=   68 fps=3.9 q=26.0 size=       1KiB time=00:00:01.11 bitrate=   5.1kbits/s speed=0.0647x elapsed=0:00:17.24    \nframe=   70 fps=3.9 q=25.0 size=       1KiB time=00:00:01.15 bitrate=   5.0kbits/s speed=0.0648x elapsed=0:00:17.75    \nframe=   73 fps=4.0 q=19.0 size=       1KiB time=00:00:01.20 bitrate=   4.7kbits/s speed=0.0656x elapsed=0:00:18.28    \nframe=   75 fps=4.0 q=30.0 size=       1KiB time=00:00:01.23 bitrate=   4.6kbits/s speed=0.0656x elapsed=0:00:18.78    \nframe=   80 fps=4.1 q=24.0 size=       1KiB time=00:00:01.31 bitrate=   4.3kbits/s speed=0.0682x elapsed=0:00:19.31    \nframe=   83 fps=4.2 q=30.0 size=       1KiB time=00:00:01.36 bitrate=   4.2kbits/s speed=0.069x elapsed=0:00:19.81    \nframe=   86 fps=4.2 q=25.0 size=       1KiB time=00:00:01.41 bitrate=   4.0kbits/s speed=0.0696x elapsed=0:00:20.34    \nframe=   87 fps=4.2 q=26.0 size=       1KiB time=00:00:01.43 bitrate=   4.0kbits/s speed=0.0687x elapsed=0:00:20.85    \nframe=   91 fps=4.3 q=29.0 size=       1KiB time=00:00:01.50 bitrate=   3.8kbits/s speed=0.0702x elapsed=0:00:21.37    \nframe=   94 fps=4.3 q=24.0 size=       1KiB time=00:00:01.55 bitrate=   3.7kbits/s speed=0.0707x elapsed=0:00:21.91    \nframe=   99 fps=4.4 q=30.0 size=       1KiB time=00:00:01.63 bitrate=   3.5kbits/s speed=0.0727x elapsed=0:00:22.45    \nframe=  102 fps=4.4 q=23.0 size=       1KiB time=00:00:01.68 bitrate=   3.4kbits/s speed=0.0733x elapsed=0:00:22.96    \nframe=  104 fps=4.4 q=23.0 size=       1KiB time=00:00:01.71 bitrate=   3.3kbits/s speed=0.0731x elapsed=0:00:23.47    \nframe=  108 fps=4.5 q=21.0 size=       1KiB time=00:00:01.78 bitrate=   3.2kbits/s speed=0.0743x elapsed=0:00:24.01    \nframe=  113 fps=4.6 q=5.0 size=       1KiB time=00:00:01.86 bitrate=   3.1kbits/s speed=0.076x elapsed=0:00:24.54    \nframe=  117 fps=4.7 q=29.0 size=       1KiB time=00:00:01.93 bitrate=   2.9kbits/s speed=0.0771x elapsed=0:00:25.07    \nframe=  120 fps=4.7 q=24.0 size=       1KiB time=00:00:01.98 bitrate=   2.9kbits/s speed=0.0775x elapsed=0:00:25.59    \nframe=  124 fps=4.7 q=23.0 size=       1KiB time=00:00:02.05 bitrate=   2.8kbits/s speed=0.0785x elapsed=0:00:26.12    \nframe=  129 fps=4.8 q=5.0 size=       1KiB time=00:00:02.13 bitrate=   2.7kbits/s speed=0.0799x elapsed=0:00:26.68    \nframe=  133 fps=4.9 q=31.0 size=       1KiB time=00:00:02.20 bitrate=   2.6kbits/s speed=0.0809x elapsed=0:00:27.19    \nframe=  135 fps=4.9 q=26.0 size=       1KiB time=00:00:02.23 bitrate=   2.6kbits/s speed=0.0806x elapsed=0:00:27.71    \nframe=  139 fps=4.9 q=26.0 size=       1KiB time=00:00:02.30 bitrate=   2.5kbits/s speed=0.0814x elapsed=0:00:28.23    \nframe=  145 fps=5.0 q=7.0 size=       1KiB time=00:00:02.40 bitrate=   2.4kbits/s speed=0.0834x elapsed=0:00:28.78    \nframe=  147 fps=5.0 q=26.0 size=       1KiB time=00:00:02.43 bitrate=   2.3kbits/s speed=0.083x elapsed=0:00:29.31    \nframe=  150 fps=5.0 q=24.0 size=       1KiB time=00:00:02.48 bitrate=   2.3kbits/s speed=0.0832x elapsed=0:00:29.84    \nframe=  152 fps=5.0 q=24.0 size=       1KiB time=00:00:02.51 bitrate=   2.3kbits/s speed=0.0829x elapsed=0:00:30.36    \nframe=  156 fps=5.1 q=25.0 size=       1KiB time=00:00:02.58 bitrate=   2.2kbits/s speed=0.0837x elapsed=0:00:30.88    \nframe=  161 fps=5.1 q=6.0 size=       1KiB time=00:00:02.66 bitrate=   2.1kbits/s speed=0.0849x elapsed=0:00:31.42    \nframe=  163 fps=5.1 q=27.0 size=       1KiB time=00:00:02.70 bitrate=   2.1kbits/s speed=0.0845x elapsed=0:00:31.94    \nframe=  166 fps=5.1 q=27.0 size=       1KiB time=00:00:02.75 bitrate=   2.1kbits/s speed=0.0847x elapsed=0:00:32.46    \nframe=  168 fps=5.1 q=27.0 size=       1KiB time=00:00:02.78 bitrate=   2.0kbits/s speed=0.0844x elapsed=0:00:32.97    \nframe=  171 fps=5.1 q=31.0 size=       1KiB time=00:00:02.83 bitrate=   2.0kbits/s speed=0.0846x elapsed=0:00:33.48    \nframe=  175 fps=5.1 q=30.0 size=       1KiB time=00:00:02.90 bitrate=   2.0kbits/s speed=0.0853x elapsed=0:00:34.01    \nframe=  179 fps=5.2 q=31.0 size=       1KiB time=00:00:02.96 bitrate=   1.9kbits/s speed=0.0859x elapsed=0:00:34.53    \nframe=  182 fps=5.2 q=29.0 size=       1KiB time=00:00:03.01 bitrate=   1.9kbits/s speed=0.0861x elapsed=0:00:35.05    \nframe=  184 fps=5.2 q=29.0 size=       1KiB time=00:00:03.05 bitrate=   1.9kbits/s speed=0.0857x elapsed=0:00:35.57    \nframe=  188 fps=5.2 q=27.0 size=       1KiB time=00:00:03.11 bitrate=   1.8kbits/s speed=0.0863x elapsed=0:00:36.12    \nframe=  194 fps=5.3 q=31.0 size=       1KiB time=00:00:03.21 bitrate=   1.8kbits/s speed=0.0877x elapsed=0:00:36.66    \nframe=  198 fps=5.3 q=30.0 size=       1KiB time=00:00:03.28 bitrate=   1.7kbits/s speed=0.0883x elapsed=0:00:37.18    \nframe=  200 fps=5.3 q=30.0 size=       1KiB time=00:00:03.31 bitrate=   1.7kbits/s speed=0.088x elapsed=0:00:37.69    \nframe=  205 fps=5.4 q=28.0 size=       1KiB time=00:00:03.40 bitrate=   1.7kbits/s speed=0.0889x elapsed=0:00:38.24    \nframe=  211 fps=5.4 q=31.0 size=       1KiB time=00:00:03.50 bitrate=   1.6kbits/s speed=0.0903x elapsed=0:00:38.77    \nframe=  217 fps=5.5 q=22.0 size=       1KiB time=00:00:03.60 bitrate=   1.6kbits/s speed=0.0916x elapsed=0:00:39.29    \nframe=  217 fps=5.5 q=22.0 size=       1KiB time=00:00:03.60 bitrate=   1.6kbits/s speed=0.0904x elapsed=0:00:39.80    \nframe=  221 fps=5.5 q=28.0 size=       1KiB time=00:00:03.66 bitrate=   1.6kbits/s speed=0.0909x elapsed=0:00:40.31    \nframe=  227 fps=5.6 q=32.0 size=       1KiB time=00:00:03.76 bitrate=   1.5kbits/s speed=0.0922x elapsed=0:00:40.85    \nframe=  231 fps=5.6 q=30.0 size=       1KiB time=00:00:03.83 bitrate=   1.5kbits/s speed=0.0927x elapsed=0:00:41.37    \nframe=  233 fps=5.6 q=24.0 size=       1KiB time=00:00:03.86 bitrate=   1.5kbits/s speed=0.0923x elapsed=0:00:41.88    \nframe=  237 fps=5.6 q=29.0 size=       1KiB time=00:00:03.93 bitrate=   1.4kbits/s speed=0.0927x elapsed=0:00:42.41    \nframe=  243 fps=5.7 q=32.0 size=       1KiB time=00:00:04.03 bitrate=   1.4kbits/s speed=0.0939x elapsed=0:00:42.95    \nframe=  247 fps=5.7 q=30.0 size=       1KiB time=00:00:04.10 bitrate=   1.4kbits/s speed=0.0943x elapsed=0:00:43.46    \nframe=  249 fps=5.7 q=24.0 size=       1KiB time=00:00:04.13 bitrate=   1.4kbits/s speed=0.094x elapsed=0:00:43.97    \nframe=  253 fps=5.7 q=29.0 size=       1KiB time=00:00:04.20 bitrate=   1.4kbits/s speed=0.0944x elapsed=0:00:44.51    \nframe=  257 fps=5.7 q=15.0 size=       1KiB time=00:00:04.26 bitrate=   1.3kbits/s speed=0.0947x elapsed=0:00:45.05    \nframe=  261 fps=5.7 q=30.0 size=       1KiB time=00:00:04.33 bitrate=   1.3kbits/s speed=0.0951x elapsed=0:00:45.57    \nframe=  265 fps=5.8 q=24.0 size=       1KiB time=00:00:04.40 bitrate=   1.3kbits/s speed=0.0955x elapsed=0:00:46.08    \nframe=  267 fps=5.7 q=32.0 size=       1KiB time=00:00:04.43 bitrate=   1.3kbits/s speed=0.0951x elapsed=0:00:46.60    \nframe=  271 fps=5.8 q=35.0 size=       1KiB time=00:00:04.50 bitrate=   1.3kbits/s speed=0.0955x elapsed=0:00:47.12    \nframe=  277 fps=5.8 q=35.0 size=       1KiB time=00:00:04.60 bitrate=   1.2kbits/s speed=0.0965x elapsed=0:00:47.65    \nframe=  281 fps=5.8 q=30.0 size=       1KiB time=00:00:04.66 bitrate=   1.2kbits/s speed=0.0968x elapsed=0:00:48.19    \nframe=  285 fps=5.8 q=35.0 size=       1KiB time=00:00:04.73 bitrate=   1.2kbits/s speed=0.0972x elapsed=0:00:48.71    \nframe=  293 fps=6.0 q=30.0 size=       1KiB time=00:00:04.86 bitrate=   1.2kbits/s speed=0.0989x elapsed=0:00:49.23    \n[out#0/matroska @ 000001eb685897c0] video:1418KiB audio:0KiB subtitle:0KiB other streams:0KiB global headers:0KiB muxing overhead: 0.146452%\nframe=  300 fps=6.1 q=37.0 Lsize=    1420KiB time=00:00:04.98 bitrate=2335.0kbits/s speed=0.101x elapsed=0:00:49.36    \n",
  "seconds": 49.78896737098694,
  "probe_out": {}
}